<?xml version="1.0" standalone="no"?>
<!DOCTYPE svg PUBLIC "-//W3C//DTD SVG 1.1//EN" "http://www.w3.org/Graphics/SVG/1.1/DTD/svg11.dtd">
<svg version="1.1" xmlns="http://www.w3.org/2000/svg" viewBox="0 0 92.85058237918008 66.29614621558903" width="92.85058237918008" height="66.29614621558903"><!-- svg-source:excalidraw --><metadata></metadata><defs><style class="style-fonts">
      </style></defs><g transform="translate(11.912122012733562 18.471586930587364) rotate(0 31.312580840973 -4.235793465293682)" stroke="none"><path fill="#1e1e1e" d="M -0.92,-4.27 Q -0.92,-4.27 1.58,-4.90 4.09,-5.53 6.14,-6.14 8.19,-6.75 12.91,-7.32 17.64,-7.90 21.47,-8.44 25.31,-8.99 28.67,-9.57 32.03,-10.15 36.86,-10.52 41.68,-10.88 44.67,-11.34 47.66,-11.79 51.73,-12.31 55.80,-12.84 59.21,-13.11 62.61,-13.38 63.40,-13.25 64.18,-13.13 64.88,-12.75 65.59,-12.38 66.14,-11.81 66.68,-11.23 67.02,-10.51 67.35,-9.79 67.44,-9.00 67.53,-8.21 67.36,-7.43 67.19,-6.65 66.78,-5.97 66.37,-5.29 65.76,-4.78 65.16,-4.26 64.42,-3.97 63.68,-3.67 62.89,-3.63 62.10,-3.58 61.33,-3.79 60.56,-4.00 59.90,-4.45 59.25,-4.89 58.76,-5.53 58.28,-6.16 58.03,-6.91 57.77,-7.66 57.77,-8.46 57.77,-9.25 58.02,-10.01 58.28,-10.76 58.76,-11.40 59.24,-12.03 59.89,-12.48 60.55,-12.92 61.32,-13.14 62.08,-13.35 62.88,-13.31 63.67,-13.27 64.41,-12.97 65.15,-12.68 65.75,-12.17 66.36,-11.65 66.77,-10.97 67.18,-10.29 67.35,-9.52 67.53,-8.74 67.44,-7.95 67.36,-7.16 67.02,-6.44 66.69,-5.71 66.14,-5.14 65.60,-4.56 64.90,-4.19 64.19,-3.81 63.41,-3.68 62.63,-3.55 62.63,-3.55 62.63,-3.55 59.35,-3.73 56.08,-3.91 52.31,-4.02 48.54,-4.13 45.53,-3.89 42.51,-3.65 37.94,-2.95 33.36,-2.24 30.01,-1.69 26.65,-1.13 22.89,-0.38 19.13,0.36 14.79,1.42 10.45,2.48 8.23,2.92 6.00,3.35 3.46,3.81 0.92,4.27 0.39,4.32 -0.12,4.37 -0.64,4.29 -1.17,4.21 -1.65,4.01 -2.14,3.81 -2.57,3.49 -2.99,3.18 -3.33,2.78 -3.67,2.37 -3.90,1.90 -4.13,1.43 -4.24,0.91 -4.35,0.39 -4.33,-0.12 -4.32,-0.65 -4.18,-1.16 -4.04,-1.67 -3.78,-2.12 -3.52,-2.58 -3.16,-2.97 -2.80,-3.35 -2.36,-3.64 -1.91,-3.93 -1.41,-4.10 -0.92,-4.27 -0.92,-4.27 L -0.92,-4.27 Z"></path></g><g transform="translate(10 33.09108933920288) rotate(0 36.17202999585055 0.9022430026971051)" stroke="none"><path fill="#1e1e1e" d="M 0,-5.33 Q 0,-5.33 2.04,-5.39 4.09,-5.44 7.80,-5.55 11.51,-5.66 13.82,-5.66 16.13,-5.67 19.07,-5.78 22.00,-5.90 24.52,-5.99 27.03,-6.09 29.16,-6.18 31.28,-6.26 33.47,-6.26 35.66,-6.25 38.40,-6.14 41.14,-6.02 44.47,-5.82 47.80,-5.62 50.73,-5.55 53.65,-5.48 56.88,-5.28 60.10,-5.07 63.09,-5.01 66.08,-4.94 69.85,-4.85 73.63,-4.76 74.64,-4.39 75.66,-4.01 76.50,-3.33 77.34,-2.64 77.92,-1.73 78.50,-0.81 78.76,0.23 79.02,1.28 78.93,2.36 78.83,3.44 78.40,4.44 77.97,5.43 77.24,6.23 76.51,7.04 75.57,7.57 74.62,8.10 73.56,8.30 72.49,8.50 71.42,8.35 70.35,8.20 69.38,7.71 68.41,7.22 67.65,6.45 66.88,5.69 66.40,4.71 65.93,3.74 65.78,2.66 65.64,1.59 65.85,0.53 66.06,-0.53 66.60,-1.47 67.14,-2.41 67.94,-3.13 68.75,-3.85 69.75,-4.27 70.75,-4.70 71.83,-4.78 72.91,-4.87 73.96,-4.60 75.01,-4.33 75.92,-3.75 76.83,-3.16 77.51,-2.31 78.18,-1.46 78.55,-0.44 78.92,0.56 78.95,1.65 78.97,2.73 78.65,3.77 78.33,4.80 77.69,5.68 77.06,6.56 76.17,7.19 75.29,7.81 74.25,8.13 73.21,8.44 72.13,8.41 71.05,8.37 71.05,8.37 71.05,8.37 70.05,8.35 69.05,8.33 66.24,8.22 63.42,8.11 61.23,8.08 59.05,8.04 56.20,7.81 53.36,7.59 50.09,7.45 46.83,7.32 43.84,7.09 40.86,6.86 38.63,6.82 36.40,6.78 33.84,6.52 31.28,6.26 29.16,6.18 27.03,6.09 24.52,5.99 22.00,5.90 19.07,5.78 16.13,5.67 13.82,5.66 11.51,5.66 7.80,5.55 4.09,5.44 2.04,5.39 0,5.33 -0.63,5.25 -1.27,5.18 -1.87,4.95 -2.48,4.72 -3.00,4.35 -3.53,3.99 -3.96,3.51 -4.39,3.03 -4.69,2.46 -4.98,1.89 -5.14,1.26 -5.29,0.64 -5.29,-0.00 -5.29,-0.64 -5.14,-1.26 -4.98,-1.89 -4.69,-2.46 -4.39,-3.03 -3.96,-3.51 -3.53,-3.99 -3.00,-4.36 -2.47,-4.72 -1.87,-4.95 -1.27,-5.18 -0.63,-5.25 0.00,-5.33 0.00,-5.33 L 0,-5.33 Z"></path></g><g transform="translate(14.558701487311623 52.94043539853965) rotate(0 34.14594044593423 1.6778554085246924)" stroke="none"><path fill="#1e1e1e" d="M 0.77,-5.20 Q 0.77,-5.20 2.86,-4.94 4.95,-4.69 7.78,-4.46 10.62,-4.22 13.43,-4.21 16.24,-4.21 18.38,-4.17 20.52,-4.14 22.68,-4.08 24.83,-4.02 27.18,-3.94 29.53,-3.86 31.88,-3.91 34.23,-3.96 36.36,-3.99 38.50,-4.01 40.83,-4.03 43.17,-4.04 45.47,-4.09 47.78,-4.13 50.07,-3.99 52.36,-3.84 54.80,-3.86 57.23,-3.88 59.50,-3.94 61.78,-3.99 65.03,-4.03 68.29,-4.07 69.47,-3.87 70.66,-3.68 71.72,-3.12 72.78,-2.55 73.61,-1.68 74.44,-0.81 74.94,0.27 75.45,1.36 75.58,2.56 75.71,3.75 75.45,4.93 75.19,6.10 74.57,7.13 73.95,8.16 73.03,8.94 72.12,9.72 71.00,10.16 69.88,10.61 68.68,10.67 67.48,10.74 66.32,10.42 65.17,10.09 64.17,9.42 63.18,8.74 62.45,7.79 61.72,6.83 61.34,5.69 60.95,4.55 60.95,3.35 60.96,2.15 61.34,1.01 61.72,-0.12 62.45,-1.08 63.18,-2.03 64.17,-2.71 65.17,-3.38 66.33,-3.70 67.49,-4.03 68.69,-3.96 69.89,-3.90 71.00,-3.45 72.12,-3.00 73.03,-2.23 73.95,-1.45 74.57,-0.42 75.19,0.60 75.45,1.78 75.71,2.95 75.58,4.15 75.45,5.34 74.94,6.43 74.44,7.52 73.61,8.39 72.78,9.27 71.72,9.83 70.66,10.39 69.47,10.59 68.28,10.78 68.29,10.78 68.29,10.78 65.24,10.75 62.18,10.71 60.00,10.66 57.82,10.61 55.54,10.54 53.26,10.48 50.52,10.21 47.78,9.95 45.47,9.90 43.16,9.86 40.83,9.84 38.49,9.83 35.51,9.78 32.53,9.74 30.16,9.65 27.80,9.57 25.01,9.21 22.23,8.84 20.10,8.53 17.98,8.21 15.86,7.83 13.75,7.45 11.56,7.23 9.37,7.00 6.37,6.47 3.36,5.93 1.29,5.56 -0.77,5.20 -1.38,5.03 -2.00,4.86 -2.55,4.55 -3.10,4.24 -3.56,3.81 -4.03,3.38 -4.37,2.84 -4.72,2.31 -4.93,1.71 -5.14,1.11 -5.20,0.48 -5.26,-0.14 -5.16,-0.77 -5.07,-1.39 -4.83,-1.98 -4.59,-2.57 -4.21,-3.08 -3.84,-3.59 -3.35,-4.00 -2.86,-4.41 -2.29,-4.69 -1.73,-4.96 -1.11,-5.10 -0.49,-5.23 0.14,-5.22 0.77,-5.20 0.77,-5.20 L 0.77,-5.20 Z"></path></g></svg>